<?xml version="1.0" encoding="UTF-8"?>
<svg version="1.1" xmlns="http://www.w3.org/2000/svg" width="218" height="127">
<path d="M0 0 C71.94 0 143.88 0 218 0 C218 19.8 218 39.6 218 60 C212.06 60.33 206.12 60.66 200 61 C201.9490625 62.58361328 201.9490625 62.58361328 203.9375 64.19921875 C218.23609041 76.5947288 218.23609041 76.5947288 219.1953125 84.87109375 C219.31893428 89.97950645 218.827446 94.96522936 218 100 C212.85170256 95.69372744 208.04247928 91.17688069 203.31640625 86.4140625 C202.61603745 85.71227875 201.91566864 85.010495 201.19407654 84.28744507 C198.98116973 82.06898864 196.77178584 79.84706185 194.5625 77.625 C193.05296686 76.11044534 191.54320343 74.59612015 190.03320312 73.08203125 C186.35236605 69.39108754 182.67632421 65.69546065 179 62 C178.67 74.54 178.34 87.08 178 100 C131.8 100 85.6 100 38 100 C38 73.6 38 47.2 38 20 C31.4 20 24.8 20 18 20 C18 26.6 18 33.2 18 40 C12.06 40 6.12 40 0 40 C0 26.8 0 13.6 0 0 Z M58 20 C58 39.47 58 58.94 58 79 C60.49855965 75.87680043 62.80742317 72.91808343 65.02099609 69.62792969 C65.86239639 68.38073151 65.86239639 68.38073151 66.72079468 67.1083374 C67.31566681 66.22180481 67.91053894 65.33527222 68.5234375 64.421875 C69.14723297 63.49586487 69.77102844 62.56985474 70.41372681 61.61578369 C72.40284985 58.66188423 74.38894145 55.7059605 76.375 52.75 C77.70293082 50.77721303 79.03105386 48.80455543 80.359375 46.83203125 C84.86833814 40.13576494 84.86833814 40.13576494 89.36541748 33.43151855 C90.48751106 31.76235146 91.61824246 30.09896851 92.75616455 28.44055176 C93.30665466 27.63291382 93.85714478 26.82527588 94.42431641 25.99316406 C95.16773788 24.91183197 95.16773788 24.91183197 95.92617798 23.80865479 C97.17017176 22.06394513 97.17017176 22.06394513 97 20 C84.13 20 71.26 20 58 20 Z M119 20 C120.47333049 23.68332623 121.62277059 26.1726621 123.77807617 29.34033203 C124.33593307 30.1653421 124.89378998 30.99035217 125.46855164 31.84036255 C126.07060928 32.72062103 126.67266693 33.60087952 127.29296875 34.5078125 C127.91722244 35.42907928 128.54147614 36.35034607 129.18464661 37.29953003 C131.18115354 40.24439915 133.18399508 43.18488844 135.1875 46.125 C137.17205454 49.04441536 139.1552237 51.9647589 141.13679504 54.88619995 C142.36812266 56.70079736 143.60130013 58.51414153 144.8367157 60.32595825 C148.55453688 65.79572479 152.13059929 71.33471875 155.61567688 76.95602417 C156.07250351 77.63053619 156.52933014 78.30504822 157 79 C157.33 79 157.66 79 158 79 C158 59.53 158 40.06 158 20 C145.13 20 132.26 20 119 20 Z M178 20 C178 26.6 178 33.2 178 40 C184.6 40 191.2 40 198 40 C198 33.4 198 26.8 198 20 C191.4 20 184.8 20 178 20 Z M107 41 C105.39132875 42.7388401 105.39132875 42.7388401 103.7265625 45.03125 C103.07171875 45.8977417 102.416875 46.7642334 101.7421875 47.65698242 C101.04351562 48.59517822 100.34484375 49.53337402 99.625 50.5 C98.9134375 51.44657471 98.201875 52.39314941 97.46875 53.3684082 C96.01218401 55.30707013 94.55809173 57.24759303 93.10644531 59.18994141 C91.17539971 61.76601175 89.22888333 64.32914838 87.2734375 66.88671875 C86.18218535 68.32023157 85.09103292 69.75382032 84 71.1875 C83.23550537 72.18330078 83.23550537 72.18330078 82.45556641 73.19921875 C79.86687275 76.25983963 79.86687275 76.25983963 79 80 C98.14 80 117.28 80 137 80 C135.49382606 76.98765213 134.13617195 74.6726625 132.1640625 72.015625 C131.59977539 71.2522583 131.03548828 70.4888916 130.45410156 69.70239258 C129.85049805 68.89310303 129.24689453 68.08381348 128.625 67.25 C128.00592773 66.41686279 127.38685547 65.58372559 126.74902344 64.7253418 C125.46769284 63.00202081 124.18512884 61.27961624 122.90136719 59.55810547 C121.08207785 57.11042779 119.27729846 54.65275214 117.4765625 52.19140625 C116.4012695 50.73160298 115.32575962 49.27195944 114.25 47.8125 C113.49904053 46.77947754 113.49904053 46.77947754 112.73291016 45.72558594 C111.53688593 44.11342676 110.27474923 42.55065972 109 41 C108.34 41 107.68 41 107 41 Z " fill="#010101" transform="translate(0,15)"/>
</svg>
