<?xml version="1.0" encoding="UTF-8"?>
<svg version="1.1" xmlns="http://www.w3.org/2000/svg" width="1017" height="1017">
<path d="M0 0 C1.40484612 0.00222303 2.80969231 0.00439951 4.21453857 0.00653076 C24.63769474 0.04944395 44.8086271 0.42607229 65.0625 3.3125 C65.7765802 3.41195923 66.4906604 3.51141846 67.22637939 3.6138916 C160.25869826 16.5951454 249.00330575 53.39204448 329.51904297 119.97949219 C331.16648845 121.4023097 332.83290507 122.8002522 334.50390625 124.1953125 C342.29876946 130.73103847 349.58681907 137.62180518 356.68701172 144.90429688 C359.99088549 148.28675053 363.3583866 151.60392619 366.734375 154.9140625 C373.57809236 161.65001137 380.2019126 168.33718484 386.140625 175.89453125 C387.94944324 178.17025989 389.84282399 180.30097127 391.8125 182.4375 C398.02321078 189.35200902 403.48762045 196.88552345 409.0625 204.3125 C409.54122559 204.94462402 410.01995117 205.57674805 410.51318359 206.22802734 C461.16228906 273.15398719 492.74166026 353.3575834 504.8125 436.125 C504.91382233 436.81151642 505.01514465 437.49803284 505.11953735 438.20535278 C508.51639918 461.51299154 509.44091268 484.71463493 509.375 508.25 C509.37277697 509.65484612 509.37060049 511.05969231 509.36846924 512.46453857 C509.32555605 532.88769474 508.94892771 553.0586271 506.0625 573.3125 C505.96304077 574.0265802 505.86358154 574.7406604 505.7611084 575.47637939 C492.7798546 668.50869826 455.98295552 757.25330575 389.39550781 837.76904297 C387.9726903 839.41648845 386.5747478 841.08290507 385.1796875 842.75390625 C378.64396153 850.54876946 371.75319482 857.83681907 364.47070312 864.93701172 C361.08824947 868.24088549 357.77107381 871.6083866 354.4609375 874.984375 C347.72498863 881.82809236 341.03781516 888.4519126 333.48046875 894.390625 C331.20474011 896.19944324 329.07402873 898.09282399 326.9375 900.0625 C320.02299098 906.27321078 312.48947655 911.73762045 305.0625 917.3125 C304.43037598 917.79122559 303.79825195 918.26995117 303.14697266 918.76318359 C236.22101281 969.41228906 156.0174166 1000.99166026 73.25 1013.0625 C72.56348358 1013.16382233 71.87696716 1013.26514465 71.16964722 1013.36953735 C47.86200846 1016.76639918 24.66036507 1017.69091268 1.125 1017.625 C-0.27984612 1017.62277697 -1.68469231 1017.62060049 -3.08953857 1017.61846924 C-23.51269474 1017.57555605 -43.6836271 1017.19892771 -63.9375 1014.3125 C-64.6515802 1014.21304077 -65.3656604 1014.11358154 -66.10137939 1014.0111084 C-159.13369826 1001.0298546 -247.87830575 964.23295552 -328.39404297 897.64550781 C-330.04148845 896.2226903 -331.70790507 894.8247478 -333.37890625 893.4296875 C-341.17376946 886.89396153 -348.46181907 880.00319482 -355.56201172 872.72070312 C-358.86588549 869.33824947 -362.2333866 866.02107381 -365.609375 862.7109375 C-372.45309236 855.97498863 -379.0769126 849.28781516 -385.015625 841.73046875 C-386.82444324 839.45474011 -388.71782399 837.32402873 -390.6875 835.1875 C-396.89821078 828.27299098 -402.36262045 820.73947655 -407.9375 813.3125 C-408.41622559 812.68037598 -408.89495117 812.04825195 -409.38818359 811.39697266 C-460.03728906 744.47101281 -491.61666026 664.2674166 -503.6875 581.5 C-503.78882233 580.81348358 -503.89014465 580.12696716 -503.99453735 579.41964722 C-507.39139918 556.11200846 -508.31591268 532.91036507 -508.25 509.375 C-508.24777697 507.97015388 -508.24560049 506.56530769 -508.24346924 505.16046143 C-508.20055605 484.73730526 -507.82392771 464.5663729 -504.9375 444.3125 C-504.83804077 443.5984198 -504.73858154 442.8843396 -504.6361084 442.14862061 C-491.6548546 349.11630174 -454.85795552 260.37169425 -388.27050781 179.85595703 C-386.8476903 178.20851155 -385.4497478 176.54209493 -384.0546875 174.87109375 C-377.51896153 167.07623054 -370.62819482 159.78818093 -363.34570312 152.68798828 C-359.96324947 149.38411451 -356.64607381 146.0166134 -353.3359375 142.640625 C-346.59998863 135.79690764 -339.91281516 129.1730874 -332.35546875 123.234375 C-330.07974011 121.42555676 -327.94902873 119.53217601 -325.8125 117.5625 C-318.89799098 111.35178922 -311.36447655 105.88737955 -303.9375 100.3125 C-303.30537598 99.83377441 -302.67325195 99.35504883 -302.02197266 98.86181641 C-235.09601281 48.21271094 -154.8924166 16.63333974 -72.125 4.5625 C-71.43848358 4.46117767 -70.75196716 4.35985535 -70.04464722 4.25546265 C-46.73700846 0.85860082 -23.53536507 -0.06591268 0 0 Z " fill="#FCFCFC" transform="translate(507.9375,-0.3125)"/>
<path d="M0 0 C4.11097399 0.03132781 8.22200857 0.04452373 12.33306885 0.05950928 C20.32281118 0.09117341 28.31227012 0.14200258 36.30181885 0.20599365 C36.63181885 0.86599365 36.96181885 1.52599365 37.30181885 2.20599365 C36.98019775 2.66747803 36.65857666 3.1289624 36.32720947 3.60443115 C21.30064942 25.29755352 12.54194427 47.29978195 4.97174072 72.50482178 C0.04331016 88.90947727 -4.99316257 104.84304084 -12.69818115 120.20599365 C-13.03768799 120.88790771 -13.37719482 121.56982178 -13.72698975 122.2723999 C-30.83868591 155.93475301 -64.34830623 179.60753796 -99.69818115 191.20599365 C-115.88624878 196.23618416 -131.79590123 198.42555675 -148.69818115 199.20599365 C-148.97581299 199.9332666 -149.25344482 200.66053955 -149.53948975 201.40985107 C-150.62951418 204.04028719 -151.85449671 206.45770315 -153.23724365 208.9442749 C-153.73103516 209.83783691 -154.22482666 210.73139893 -154.73358154 211.65203857 C-155.25814941 212.59796875 -155.78271729 213.54389893 -156.32318115 214.51849365 C-183.58933524 264.28013684 -195.15940647 312.25303816 -195.07318115 368.89349365 C-195.073302 370.12503174 -195.07342285 371.35656982 -195.07354736 372.62542725 C-195.0516533 388.39118888 -194.65155633 404.02600262 -192.94818115 419.70599365 C-192.8697699 420.44352875 -192.79135864 421.18106384 -192.71057129 421.94094849 C-189.80258403 448.32172158 -182.24024561 469.82190876 -161.82318115 487.51849365 C-146.92230289 499.36622805 -130.08145278 508.57043974 -110.71795654 508.44891357 C-109.75279114 508.45081192 -108.78762573 508.45271027 -107.79321289 508.45466614 C-104.62733645 508.45834836 -101.46169317 508.44771057 -98.2958374 508.4364624 C-96.09006273 508.4352696 -93.88428755 508.43481765 -91.67851257 508.43507385 C-87.06972039 508.43351369 -82.46100641 508.42525603 -77.85223389 508.4118042 C-71.93140359 508.39474511 -66.01065855 508.39099209 -60.08980656 508.39174938 C-55.54238566 508.39147825 -50.99498356 508.38600743 -46.44756889 508.37874794 C-44.26297587 508.37555743 -42.07838071 508.37359298 -39.89378548 508.37285423 C-36.85336754 508.37069866 -33.81304224 508.36197359 -30.77264404 508.35125732 C-29.40830482 508.3519371 -29.40830482 508.3519371 -28.0164032 508.35263062 C-24.03995085 508.73093142 -24.03995085 508.73093142 -20.69818115 507.20599365 C-20.60124415 505.05439639 -20.57631332 502.89955254 -20.57792664 500.74577332 C-20.57707221 500.06296565 -20.57621779 499.38015798 -20.57533747 498.67665917 C-20.57368072 496.37187675 -20.57920718 494.06716593 -20.58465576 491.76239014 C-20.58493762 490.11694338 -20.58477993 488.47149649 -20.58421326 486.8260498 C-20.58392522 482.34483606 -20.58982294 477.86364884 -20.59678721 473.38244128 C-20.60301973 468.7045726 -20.60362447 464.02670337 -20.60481262 459.34883118 C-20.60792624 450.48424197 -20.61614004 441.61966503 -20.62616211 432.75508124 C-20.63940727 420.78086801 -20.64482291 408.80665145 -20.65066433 396.83243275 C-20.66007991 377.95694385 -20.67999862 359.08148085 -20.69818115 340.20599365 C-97.42318115 339.71099365 -97.42318115 339.71099365 -175.69818115 339.20599365 C-172.31356577 313.82137827 -172.31356577 313.82137827 -169.69818115 311.20599365 C-167.6280449 311.10257183 -165.55432467 311.07076215 -163.48161316 311.06555176 C-162.49649509 311.06109507 -162.49649509 311.06109507 -161.49147564 311.05654836 C-159.27447616 311.04782565 -157.05753045 311.04635008 -154.84051514 311.04486084 C-153.25730778 311.04023496 -151.67410153 311.03521062 -150.09089661 311.02981567 C-145.77650711 311.01666218 -141.4621332 311.01024029 -137.14772677 311.00580502 C-134.45225803 311.00287732 -131.75679357 310.99877297 -129.06132698 310.99430084 C-120.62832929 310.98061438 -112.19534136 310.97095496 -103.76233333 310.96709895 C-94.02796484 310.96262371 -84.29373715 310.9451055 -74.55941147 310.91609836 C-67.03745723 310.89446275 -59.51554253 310.88439357 -51.99355751 310.88305783 C-47.50071532 310.88201059 -43.00800527 310.8761207 -38.51519585 310.85823822 C-34.28398819 310.84172642 -30.05301152 310.83961708 -25.82178307 310.84837723 C-24.27224355 310.84914611 -22.72269148 310.84482462 -21.17318344 310.83491898 C-3.87127306 310.73084046 -3.87127306 310.73084046 2.54400635 316.07318115 C3.08283447 316.73575928 3.6216626 317.3983374 4.17681885 318.08099365 C4.73111572 318.73841553 5.2854126 319.3958374 5.85650635 320.07318115 C9.27464253 325.11724158 9.58933011 329.72508978 9.55578613 335.69029236 C9.55890611 336.54253224 9.5620261 337.39477213 9.56524062 338.27283746 C9.57321498 341.12717286 9.56689921 343.98129535 9.56060791 346.83563232 C9.56331796 348.88236109 9.56687897 350.92908888 9.57122803 352.97581482 C9.5803509 358.53335132 9.57680862 364.09081362 9.57046986 369.64835143 C9.56541142 375.45836448 9.57010068 381.26837111 9.57324219 387.0783844 C9.57688141 396.8324396 9.57208295 406.58646453 9.56256104 416.34051514 C9.55166744 427.63034429 9.55520882 438.92010127 9.56621385 450.20992869 C9.57527705 459.89406332 9.57657702 469.57817617 9.57133651 479.26231366 C9.56821265 485.05042379 9.56781902 490.83849993 9.57440948 496.62660789 C9.58016859 502.06435481 9.57621249 507.50200819 9.56462097 512.93974495 C9.56196707 514.94009114 9.56275184 516.94044515 9.5671463 518.94078827 C9.57257427 521.66151527 9.56580142 524.38193847 9.55578613 527.10264587 C9.56024758 527.90272684 9.56470902 528.7028078 9.56930566 529.52713364 C9.53011955 534.97769295 9.53011955 534.97769295 7.30181885 537.20599365 C4.9151268 537.47443581 4.9151268 537.47443581 1.85644531 537.50033569 C0.12041801 537.52180161 0.12041801 537.52180161 -1.65068054 537.54370117 C-2.92738113 537.54907898 -4.20408173 537.55445679 -5.51947021 537.55999756 C-6.87322182 537.57252756 -8.22696655 537.58582123 -9.58070374 537.599823 C-14.04168889 537.64198456 -18.50267569 537.66266775 -22.96380615 537.68255615 C-24.50552185 537.69065497 -26.04723685 537.69888893 -27.58895111 537.70725632 C-34.85050551 537.74541491 -42.11201915 537.77383841 -49.3736546 537.79048026 C-57.70917529 537.80990325 -66.04361634 537.86219183 -74.37875772 537.94348204 C-80.84448916 538.00433147 -87.30991662 538.03346892 -93.77592826 538.04004228 C-97.62464749 538.04469369 -101.47221796 538.06193698 -105.32062531 538.11296463 C-135.89069436 538.49723791 -158.97279973 530.78307219 -182.69818115 511.20599365 C-183.35818115 510.54599365 -184.01818115 509.88599365 -184.69818115 509.20599365 C-185.02818115 522.40599365 -185.35818115 535.60599365 -185.69818115 549.20599365 C-181.36719551 549.1960009 -181.36719551 549.1960009 -176.94871521 549.18580627 C-150.48825055 549.12614403 -124.02778917 549.08133976 -97.5672727 549.05279766 C-94.10122448 549.04904542 -90.63517641 549.04516246 -87.16912842 549.04119873 C-86.47908334 549.0404118 -85.78903826 549.03962487 -85.07808272 549.03881409 C-73.8962274 549.02575033 -62.71441822 549.00209117 -51.53259029 548.97453526 C-40.0640792 548.94650801 -28.5956056 548.93004773 -17.12705928 548.92372817 C-10.68320328 548.91980864 -4.23945202 548.91056253 2.2043705 548.88880348 C8.26420697 548.86850601 14.32389512 548.86214618 20.38376236 548.86667061 C22.61267718 548.86584238 24.84159674 548.85983683 27.07048225 548.84837723 C30.10430694 548.83353866 33.13756527 548.83700846 36.17140198 548.8452301 C37.06147251 548.83649158 37.95154304 548.82775305 38.86858541 548.81874973 C44.85732799 548.8628775 44.85732799 548.8628775 47.0269286 550.53765887 C49.19367389 553.37308454 48.63315539 555.72695991 48.30181885 559.20599365 C46.13454704 570.13265568 40.43922279 578.8098109 31.30181885 585.20599365 C24.81608275 588.77423308 18.86924141 590.31702918 11.46153259 590.36421204 C10.29350601 590.37400085 9.12547943 590.38378967 7.92205811 590.39387512 C6.64963257 590.39963058 5.37720703 590.40538605 4.06622314 590.41131592 C2.70589403 590.42090137 1.34556786 590.43091184 -0.01475525 590.4413147 C-3.70027321 590.46829755 -7.38580388 590.48934284 -11.07136559 590.50931668 C-14.92576925 590.53121718 -18.78013399 590.55858595 -22.63450623 590.58537292 C-29.93000766 590.63524494 -37.22553076 590.68020409 -44.52107447 590.72339529 C-52.82819226 590.77281465 -61.13527099 590.82771533 -69.44235098 590.88307488 C-86.52759159 590.99681061 -103.61286848 591.10366789 -120.69818115 591.20599365 C-120.18956543 591.70937256 -119.68094971 592.21275146 -119.15692139 592.73138428 C-116.81377387 595.05351344 -114.47471513 597.37972135 -112.13568115 599.70599365 C-111.33581787 600.49747803 -110.53595459 601.2889624 -109.71185303 602.10443115 C-104.25314348 607.54086025 -99.07911201 613.13591835 -94.15667725 619.06170654 C-92.50564881 621.00013765 -92.50564881 621.00013765 -89.69818115 623.20599365 C-86.83083594 623.17479955 -86.83083594 623.17479955 -83.69818115 622.20599365 C-71.59621283 621.35782151 -63.04309918 624.42325633 -53.01068115 630.95599365 C-45.51740691 638.24674697 -40.64647964 648.21580892 -40.19818115 658.70599365 C-40.66514668 669.63298701 -45.96515846 679.94211794 -53.82318115 687.45599365 C-61.98349396 693.83457877 -70.76187292 696.08107516 -81.01849365 695.68255615 C-91.99185857 694.26137726 -100.3301996 688.77134453 -107.2567749 680.29974365 C-112.59425459 672.57069295 -115.04338053 662.51144502 -113.69818115 653.20599365 C-112.71774288 650.02842864 -111.62263874 646.95350624 -110.37786865 643.87005615 C-109.44661016 641.2949816 -109.44661016 641.2949816 -110.45379639 639.25140381 C-111.7588826 637.10621795 -113.12902065 635.56214944 -114.9286499 633.81536865 C-115.56286865 633.19275146 -116.1970874 632.57013428 -116.8505249 631.9286499 C-117.52212646 631.27767334 -118.19372803 630.62669678 -118.88568115 629.95599365 C-120.26644279 628.59850327 -121.64537837 627.2391528 -123.0223999 625.87786865 C-123.64203613 625.27039795 -124.26167236 624.66292725 -124.90008545 624.03704834 C-127.29117787 621.60212735 -129.50087887 619.03404011 -131.69818115 616.42474365 C-135.32891067 612.39690309 -139.23539442 608.6306095 -143.10638428 604.8348999 C-147.55928292 600.44236381 -151.55316579 595.94315407 -155.69818115 591.20599365 C-165.59818115 590.87599365 -175.49818115 590.54599365 -185.69818115 590.20599365 C-185.69818115 614.62599365 -185.69818115 639.04599365 -185.69818115 664.20599365 C-184.04818115 664.86599365 -182.39818115 665.52599365 -180.69818115 666.20599365 C-171.04063165 672.2163761 -164.60196002 680.09749491 -161.69818115 691.20599365 C-160.12079704 702.84725647 -161.63198462 713.67866257 -168.44818115 723.45599365 C-174.55606019 730.94505137 -181.52475322 736.14818434 -190.69818115 739.20599365 C-203.45221518 740.37809083 -213.87991893 739.57700123 -224.44818115 731.95599365 C-233.01567086 724.82144677 -238.86885763 715.48240613 -240.1473999 704.2645874 C-240.67345295 692.78843274 -238.18251036 683.22125839 -230.7723999 674.28411865 C-226.68899587 670.19302459 -221.87084921 666.79232768 -216.69818115 664.20599365 C-216.36818115 639.78599365 -216.03818115 615.36599365 -215.69818115 590.20599365 C-241.06692341 588.44706702 -241.06692341 588.44706702 -251.44818115 598.26849365 C-253.62755829 600.89460608 -255.68262149 603.47139795 -257.69818115 606.20599365 C-258.8708929 607.57298699 -260.05484351 608.93062999 -261.26068115 610.26849365 C-261.75697021 610.85759521 -262.25325928 611.44669678 -262.7645874 612.0536499 C-266.19946939 615.8771246 -269.90850052 619.4350777 -273.56097412 623.04925537 C-277.32556158 626.78950938 -280.94970623 630.58973457 -284.3661499 634.6552124 C-285.69818115 636.20599365 -285.69818115 636.20599365 -287.4364624 637.6005249 C-288.97583194 639.18157338 -288.97583194 639.18157338 -288.4833374 641.59661865 C-287.74039225 644.06571001 -286.96180666 646.51353564 -286.13568115 648.95599365 C-283.50516571 657.72869787 -284.30601755 665.69561854 -287.69818115 674.20599365 C-293.13257027 683.95138395 -300.11588347 690.56014904 -310.69818115 694.20599365 C-320.51192617 696.61132331 -330.77740254 696.11639256 -339.69818115 691.20599365 C-348.56437961 684.89685823 -354.78099496 676.73664336 -357.69818115 666.20599365 C-358.89917628 655.05570207 -357.37918003 645.93168606 -350.9364624 636.67474365 C-344.80037991 629.20689478 -336.49073119 623.30003313 -326.69818115 622.20599365 C-321.57676622 621.93136705 -316.99988394 621.80201693 -312.07318115 623.33099365 C-308.69031381 623.55820056 -308.69031381 623.55820056 -306.72943115 621.50286865 C-304.77593028 619.30871912 -302.9119975 617.05868922 -301.0536499 614.78411865 C-298.56319842 611.88457284 -295.80359432 609.25216862 -293.07318115 606.58099365 C-288.39429879 601.96155998 -283.93751396 597.23666859 -279.69818115 592.20599365 C-279.36818115 591.87599365 -279.03818115 591.54599365 -278.69818115 591.20599365 C-279.63245249 591.2051765 -279.63245249 591.2051765 -280.58559799 591.20434284 C-295.78659423 591.18933295 -310.98724589 591.14671711 -326.18806076 591.07390308 C-333.53928652 591.03934569 -340.89032657 591.01390978 -348.24163818 591.01043701 C-354.65393384 591.00738415 -361.06589797 590.98671768 -367.47806573 590.94546908 C-370.86895219 590.924256 -374.25936876 590.91147732 -377.65032196 590.91983986 C-381.44900823 590.92476526 -385.24634132 590.89856312 -389.04486084 590.86541748 C-390.70535713 590.87835594 -390.70535713 590.87835594 -392.3993988 590.89155579 C-403.8460469 590.72512607 -413.24612029 586.72658739 -421.4989624 578.8192749 C-426.81671738 572.50030851 -430.8243372 564.47400239 -430.88568115 556.14349365 C-430.89986084 555.26564209 -430.91404053 554.38779053 -430.9286499 553.4833374 C-430.69818115 551.20599365 -430.69818115 551.20599365 -428.69818115 549.20599365 C-425.88988007 549.01254587 -423.18054962 548.94559827 -420.37136841 548.96548462 C-419.49986291 548.96377577 -418.6283574 548.96206692 -417.73044264 548.96030629 C-414.79301165 548.95699663 -411.85580615 548.96803928 -408.918396 548.97894287 C-406.81960556 548.97950667 -404.72081474 548.97919105 -402.62202454 548.97805786 C-396.90948096 548.97748211 -391.19702073 548.9892723 -385.48449659 549.00320578 C-379.52005398 549.01567619 -373.55560964 549.01688071 -367.59115601 549.01925659 C-356.28996894 549.02548224 -344.9888204 549.04190769 -333.68765032 549.06195557 C-320.8244925 549.08428089 -307.96133287 549.09529951 -295.09816051 549.10534644 C-268.63147861 549.126273 -242.16483366 549.16187106 -215.69818115 549.20599365 C-216.02818115 536.33599365 -216.35818115 523.46599365 -216.69818115 510.20599365 C-220.65818115 513.50599365 -224.61818115 516.80599365 -228.69818115 520.20599365 C-232.01359923 522.29498693 -235.18818298 524.20952707 -238.63568115 526.01849365 C-239.49032959 526.4778833 -240.34497803 526.93727295 -241.2255249 527.4105835 C-250.44708832 532.28002728 -260.25659695 537.32011473 -270.8732605 537.33970642 C-272.44220566 537.3461039 -272.44220566 537.3461039 -274.04284668 537.35263062 C-275.18481506 537.35217743 -276.32678345 537.35172424 -277.50335693 537.35125732 C-279.31357834 537.35629524 -279.31357834 537.35629524 -281.16036987 537.36143494 C-284.46596625 537.3693049 -287.77149982 537.37261227 -291.07710123 537.37325072 C-293.83583057 537.37420085 -296.59455388 537.37788004 -299.3532809 537.38142282 C-305.85838748 537.38955999 -312.36348022 537.39200759 -318.86859131 537.39129639 C-325.58514065 537.39069463 -332.30160994 537.40126756 -339.018139 537.41704005 C-344.78296288 537.43009654 -350.54776051 537.43548114 -356.31259906 537.43484098 C-359.75665725 537.43458558 -363.20064416 537.43745983 -366.64468765 537.44801903 C-370.48042211 537.45945905 -374.31604565 537.45496487 -378.15179443 537.44891357 C-379.29781128 537.45453308 -380.44382812 537.46015259 -381.62457275 537.46594238 C-383.18505844 537.45965065 -383.18505844 537.45965065 -384.77706909 537.45323181 C-385.68444887 537.45377658 -386.59182865 537.45432135 -387.52670479 537.45488262 C-389.69818115 537.20599365 -389.69818115 537.20599365 -391.69818115 535.20599365 C-391.90031107 532.45126532 -391.97619174 529.79647901 -391.96560669 527.04017639 C-391.9701378 526.18586051 -391.97466892 525.33154462 -391.97933733 524.45134038 C-391.99205716 521.57173388 -391.99035609 518.69231469 -391.9887085 515.81268311 C-391.99468916 513.75480402 -392.00149363 511.69692719 -392.00906372 509.63905334 C-392.0267815 504.03556277 -392.03142163 498.43213321 -392.03269529 492.82861733 C-392.03459117 488.15426776 -392.04194541 483.4799325 -392.04903948 478.80558842 C-392.06534426 467.77637046 -392.07020667 456.74718517 -392.06878662 445.71795654 C-392.06758578 434.33678084 -392.08867149 422.95579495 -392.12027395 411.57466727 C-392.14642327 401.80983344 -392.15715442 392.04506162 -392.1558758 382.28019303 C-392.15536562 376.44543337 -392.16107947 370.61084216 -392.1822319 364.77611732 C-392.20159062 359.28579352 -392.20175476 353.79579919 -392.18719864 348.30546379 C-392.18510626 346.2910883 -392.18983688 344.27669233 -392.20191956 342.26235199 C-392.21735783 339.51009023 -392.20807314 336.75896641 -392.19265747 334.00672913 C-392.2029446 333.21138411 -392.21323172 332.4160391 -392.22383058 331.59659272 C-392.14698024 325.37829806 -390.38700854 321.21115367 -386.1708374 316.4989624 C-381.02578438 312.46558289 -377.11280417 310.96139429 -370.59214783 310.92752075 C-369.36522217 310.91635727 -368.13829651 310.90519379 -366.87419128 310.89369202 C-365.52279694 310.89132731 -364.17140225 310.88915162 -362.82000732 310.887146 C-361.39071081 310.87784346 -359.96141971 310.8676743 -358.53213501 310.85670471 C-354.65859916 310.82942722 -350.78509965 310.81426201 -346.91149306 310.80127668 C-342.86088001 310.78563629 -338.81034101 310.75884896 -334.75978088 310.73324585 C-327.09241836 310.68647416 -319.42504187 310.64972226 -311.75760967 310.61657298 C-303.02726338 310.57834022 -294.29699151 310.52893307 -285.56670797 310.47858882 C-267.61058684 310.37529291 -249.65442028 310.28602489 -231.69818115 310.20599365 C-232.80417072 307.65068295 -233.91286842 305.09660482 -235.02313232 302.54315186 C-235.33353203 301.82522713 -235.64393173 301.1073024 -235.96373749 300.36762238 C-238.35867741 294.86813435 -241.01705249 289.59345021 -244.01068115 284.39349365 C-244.43929443 283.63230225 -244.86790771 282.87111084 -245.30950928 282.08685303 C-247.0258837 279.05307421 -248.76325926 276.10837649 -250.69818115 273.20599365 C-252.71277302 272.61190273 -252.71277302 272.61190273 -255.07318115 272.4677124 C-256.41412842 272.32607666 -256.41412842 272.32607666 -257.78216553 272.18157959 C-258.74445068 272.08651123 -259.70673584 271.99144287 -260.69818115 271.89349365 C-285.02477887 269.01333874 -308.95733085 258.83008146 -324.90911865 239.62005615 C-333.45906329 228.08323129 -339.2008276 215.21850163 -344.9208374 202.1317749 C-349.91727825 190.74263931 -354.86894796 179.50258529 -363.19818115 170.08099365 C-365.69818115 167.20599365 -365.69818115 167.20599365 -365.69818115 164.20599365 C-359.81586635 161.26483625 -351.68046556 162.03634714 -345.22943115 162.00286865 C-343.91065979 161.99431854 -343.91065979 161.99431854 -342.56524658 161.9855957 C-340.71308572 161.97620823 -338.86090862 161.96963684 -337.00872803 161.96575928 C-334.2330253 161.95611472 -331.45808393 161.92505616 -328.68255615 161.89349365 C-302.28723892 161.73641284 -276.0371326 167.98666967 -254.69818115 184.20599365 C-254.03818115 184.70228271 -253.37818115 185.19857178 -252.69818115 185.7098999 C-238.98646701 196.82388695 -229.43737482 214.95365515 -227.01068115 232.39349365 C-225.56643399 248.81075218 -225.56643399 248.81075218 -227.69818115 255.20599365 C-228.35818115 255.20599365 -229.01818115 255.20599365 -229.69818115 255.20599365 C-231.41714177 253.15658029 -233.03331737 251.0938653 -234.63568115 248.95599365 C-246.50137285 233.5478081 -263.62703301 212.61298479 -283.69818115 208.20599365 C-283.21131836 208.62356934 -282.72445557 209.04114502 -282.22283936 209.47137451 C-270.32860972 219.76278505 -259.3377473 230.80394709 -249.98382568 243.46722412 C-248.68318625 245.2262735 -247.36225349 246.96856104 -246.0380249 248.7098999 C-235.62691214 262.52251459 -226.13733545 277.10757942 -217.69818115 292.20599365 C-216.10552385 289.23866243 -215.06514501 286.34715681 -214.1395874 283.11224365 C-205.01005852 251.94336494 -192.55081143 223.12281763 -176.33148193 195.05072021 C-174.77522498 192.3401812 -173.24551708 189.61668683 -171.7255249 186.88568115 C-153.56885774 154.38436183 -132.14722147 124.46535991 -105.79681396 98.11932373 C-104.32611705 96.64643393 -102.86364581 95.165691 -101.40130615 93.68450928 C-95.92595673 88.17696708 -90.2633739 83.04789446 -84.18939209 78.19598389 C-80.88571076 75.55698874 -77.70032802 72.79300415 -74.51068115 70.01849365 C-69.71077811 65.8704293 -64.85035984 61.91556231 -59.69818115 58.20599365 C-81.1849086 66.44464252 -99.97559506 78.67812359 -117.69818115 93.20599365 C-118.24764404 93.65104248 -118.79710693 94.09609131 -119.36322021 94.55462646 C-134.1084618 106.55090266 -148.20593122 120.03539248 -159.69818115 135.20599365 C-160.71901325 136.51170117 -161.74126929 137.81629608 -162.7645874 139.12005615 C-168.68720443 146.71504347 -174.36517318 154.37427279 -179.45184326 162.56048584 C-181.49714651 165.77155425 -183.01893682 167.94620704 -186.69818115 169.20599365 C-187.34034211 167.65046784 -187.96053679 166.08587942 -188.57318115 164.51849365 C-189.09525146 163.21331787 -189.09525146 163.21331787 -189.62786865 161.8817749 C-192.48800673 152.05918393 -193.06211538 142.07306165 -193.01068115 131.89349365 C-193.0050415 130.71287354 -192.99940186 129.53225342 -192.99359131 128.31585693 C-192.56651889 97.49475953 -179.47434474 70.57412815 -158.44818115 48.51849365 C-147.59720221 38.03690974 -135.04633837 30.11464508 -121.69818115 23.20599365 C-121.04688232 22.86471436 -120.3955835 22.52343506 -119.72454834 22.17181396 C-82.16198497 2.73007116 -41.49839973 -0.35110056 0 0 Z " fill="#532792" transform="translate(698.6981811523438,137.79400634765625)"/>
<path d="M0 0 C1.51266229 0.00276538 1.51266229 0.00276538 3.05588341 0.00558662 C4.21137184 0.0028373 5.36686028 0.00008797 6.55736351 -0.00274467 C8.46815445 0.00804115 8.46815445 0.00804115 10.41754723 0.01904488 C11.76757868 0.0196088 13.11761074 0.0192928 14.46764183 0.01815987 C18.13894733 0.01758461 21.81012288 0.02936674 25.48139811 0.04330778 C29.31576986 0.05578645 33.15014439 0.05698337 36.98453331 0.0593586 C44.24831042 0.06558181 51.51202752 0.08200396 58.77577817 0.10205758 C67.04409895 0.12439046 75.31242255 0.13540342 83.58076596 0.14544845 C100.59198691 0.16636949 117.6031494 0.20156176 134.61432457 0.24609566 C134.62957758 1.14938087 134.62957758 1.14938087 134.64513874 2.07091427 C134.75374096 8.46205119 134.86719693 14.85309009 134.9832058 21.24409676 C135.02563606 23.61453879 135.0669161 25.98500176 135.10692406 28.35548592 C135.36743051 43.73351358 135.84633449 59.07583202 136.67682457 74.43359566 C136.76887707 76.19589258 136.86041557 77.95821644 136.95142174 79.7205677 C136.9915073 80.49569678 137.03159286 81.27082586 137.07289314 82.0694437 C139.00324278 119.83496077 139.00324278 119.83496077 133.61432457 130.24609566 C133.11674644 131.24254097 132.61916832 132.23898628 132.10651207 133.26562691 C128.18833601 140.50969659 123.3275853 146.3581489 117.61432457 152.24609566 C117.06260582 152.87129097 116.51088707 153.49648628 115.94244957 154.14062691 C107.43085129 163.47388938 96.06999509 169.41923193 83.45626068 170.4167614 C77.39437217 170.69115372 71.3292318 170.64142687 65.26276207 170.60937691 C63.31172244 170.6088574 61.36068229 170.60937859 59.40964317 170.61088753 C55.34676738 170.61079835 51.28409229 170.60047171 47.22125816 170.5822773 C42.00681034 170.55944015 36.79265121 170.55907903 31.57816696 170.56579494 C27.56169616 170.56912778 23.54529164 170.56252033 19.52883339 170.55266571 C17.60464003 170.54881289 15.68043931 170.54766583 13.75624275 170.54925156 C11.08037389 170.54962077 8.40488293 170.53704767 5.72907066 170.52075386 C4.53383781 170.52446999 4.53383781 170.52446999 3.31445885 170.52826118 C-2.15691415 170.47485694 -2.15691415 170.47485694 -4.38567543 168.24609566 C-4.63735771 165.4131031 -4.63735771 165.4131031 -4.63964272 161.71704292 C-4.6427627 161.03887551 -4.64588268 160.3607081 -4.6490972 159.66199017 C-4.65710486 157.37874024 -4.65074295 155.09575404 -4.64446449 152.81250191 C-4.64717313 151.18000316 -4.65073335 149.54750564 -4.65508461 147.91501045 C-4.66422602 143.47295719 -4.66065717 139.03099652 -4.65432644 134.58894157 C-4.64927549 129.94804567 -4.65395536 125.30715788 -4.65709877 120.66626167 C-4.66074106 112.87156941 -4.65593243 105.07691499 -4.64641762 97.28222847 C-4.63553256 88.26062836 -4.63905795 79.23911863 -4.65007043 70.21752071 C-4.65913582 62.48247343 -4.66043225 54.74745341 -4.65519309 47.01240253 C-4.65206926 42.38790276 -4.65167532 37.76344551 -4.65826607 33.13894844 C-4.66402805 28.79204371 -4.66006379 24.44525592 -4.64847755 20.09836388 C-4.6458248 18.49954739 -4.64660649 16.90072113 -4.65100288 15.30190849 C-4.65643569 13.12618727 -4.64965224 10.95084519 -4.63964272 8.77514839 C-4.63888866 7.55544853 -4.63813461 6.33574867 -4.63735771 5.07908821 C-4.31840096 1.48883909 -3.66094424 0.37764671 0 0 Z " fill="#FCFBFC" transform="translate(340.38567543029785,476.75390434265137)"/>
<path d="M0 0 C3.87848846 2.03083071 6.38865732 4.94152475 8 9 C8.24137178 13.49756077 7.55333627 17.10321363 5.1875 20.9375 C1.69233687 24.23293952 -0.01008449 24.90420173 -4.875 25.375 C-9.21917437 25.24556464 -11.70927549 23.90808213 -15 21 C-18.04086746 16.78202255 -18.5614877 13.21541295 -17.75390625 8.19140625 C-16.61780794 4.88906869 -14.95325752 3.09365472 -12.1640625 1.0390625 C-8.12230656 -0.901564 -4.33651539 -0.96446388 0 0 Z " fill="#FAF8FB" transform="translate(503,826)"/>
<path d="M0 0 C2.97239241 1.78476241 5.42604027 3.85208055 7 7 C7.37712577 11.99691647 7.09290612 14.99067725 4 19 C0.276413 21.48239134 -2.08883855 21.59530761 -6.48046875 21.51171875 C-10.22935263 20.75031753 -11.83496753 18.99047197 -14 15.93359375 C-15.51763699 12.99910036 -15.68770022 11.23219103 -15 8 C-13.36564595 4.96477105 -11.944447 2.71647703 -9.1875 0.625 C-5.89024117 -0.31707395 -3.4187401 -0.41260656 0 0 Z " fill="#FAF8FB" transform="translate(381,786)"/>
<path d="M0 0 C2.97672584 1.77280561 5.42804007 3.85608015 7 7 C7.5811138 14.08958838 7.5811138 14.08958838 5.125 17.9375 C1.6160425 21.34325286 -1.01818439 21.33097275 -5.73828125 21.29296875 C-9.0542278 20.86344199 -10.74987627 19.39075646 -13 17 C-14.73631636 13.52736727 -14.60190402 9.78806987 -14 6 C-9.78502349 0.67581915 -6.7408423 -0.67408423 0 0 Z " fill="#FAF9FB" transform="translate(625,786)"/>
<path d="M0 0 C0 4.34834845 -2.21595309 6.78270083 -5 10 C-6.9375 11.125 -6.9375 11.125 -9 12 C-11.06940928 13.59421159 -13.02168598 15.29145608 -15 17 C-13.67879172 14.06769807 -12.25361803 12.01335101 -9.9609375 9.765625 C-9.38085938 9.19199219 -8.80078125 8.61835937 -8.203125 8.02734375 C-7.59984375 7.44082031 -6.9965625 6.85429688 -6.375 6.25 C-5.76398438 5.64800781 -5.15296875 5.04601562 -4.5234375 4.42578125 C-3.02011376 2.94594695 -1.51065144 1.47235324 0 0 Z " fill="#391180" transform="translate(412,738)"/>
<path d="M0 0 C0.33 0.66 0.66 1.32 1 2 C-12.6332574 4.11161731 -12.6332574 4.11161731 -19 5 C-18 3 -18 3 -15.48828125 2.1484375 C-14.44027344 1.89320313 -13.39226563 1.63796875 -12.3125 1.375 C-11.27738281 1.11460937 -10.24226562 0.85421875 -9.17578125 0.5859375 C-6.03785903 0.00698506 -3.18242993 -0.1049677 0 0 Z " fill="#45218A" transform="translate(632,143)"/>
<path d="M0 0 C0.66 0.33 1.32 0.66 2 1 C0.95600254 2.34786992 -0.11102066 3.67792729 -1.1875 5 C-1.77917969 5.7425 -2.37085938 6.485 -2.98046875 7.25 C-5 9 -5 9 -7.73828125 9.25 C-8.48464844 9.1675 -9.23101562 9.085 -10 9 C-6.83047153 5.73991357 -3.60062011 2.77762123 0 0 Z " fill="#3D1584" transform="translate(454,632)"/>
<path d="M0 0 C-0.66 0 -1.32 0 -2 0 C-2 0.66 -2 1.32 -2 2 C-6.455 2.495 -6.455 2.495 -11 3 C-10 1 -10 1 -7.1875 -0.1875 C-4.14038924 -0.96421451 -2.86250637 -1.10096399 0 0 Z " fill="#411987" transform="translate(612,149)"/>
</svg>
